<svg width="20" height="20" viewBox="0 0 20 20" fill="none" xmlns="http://www.w3.org/2000/svg">
<path d="M12.45 4.32508C12.765 3.96198 13.0052 3.54022 13.1568 3.08403C13.3084 2.62783 13.3684 2.14619 13.3333 1.66675C12.3661 1.74482 11.4683 2.19971 10.8333 2.93341C10.5292 3.28506 10.2988 3.69415 10.1557 4.13645C10.0125 4.57876 9.95958 5.04528 9.99999 5.50842C10.4718 5.51235 10.9381 5.40766 11.363 5.20246C11.7878 4.99727 12.1598 4.69706 12.45 4.32508ZM14.55 10.5251C14.5556 9.88653 14.7238 9.25993 15.0387 8.70442C15.3536 8.1489 15.8049 7.6828 16.35 7.35008C16.006 6.85445 15.5513 6.44578 15.0219 6.15648C14.4924 5.86718 13.9029 5.70521 13.3 5.68342C12 5.55008 10.8 6.44175 10.1083 6.44175C9.41665 6.44175 8.44165 5.70008 7.35832 5.71675C6.65009 5.74008 5.96 5.94657 5.35536 6.31607C4.75072 6.68558 4.25216 7.20548 3.90832 7.82508C2.44165 10.3751 3.53332 14.1667 4.99999 16.2251C5.66665 17.2334 6.49999 18.3751 7.59999 18.3334C8.69999 18.2917 9.05832 17.6501 10.3333 17.6501C11.6083 17.6501 12 18.3334 13.0833 18.3084C14.1667 18.2834 14.9333 17.2751 15.6333 16.2668C16.1292 15.5347 16.5165 14.7347 16.7833 13.8917C16.1229 13.6101 15.5594 13.1412 15.1625 12.5428C14.7656 11.9445 14.5527 11.2431 14.55 10.5251Z" fill="black"/>
</svg>
