<svg width="24" height="24" viewBox="0 0 24 24" fill="none" xmlns="http://www.w3.org/2000/svg">
<path fill-rule="evenodd" clip-rule="evenodd" d="M13.8838 19.2283C13.3884 19.1215 10.3693 19.1215 9.87389 19.2283C9.45034 19.327 8.99231 19.5566 8.99231 20.0602C9.01693 20.5406 9.29569 20.9646 9.68181 21.2335L9.68083 21.2345C10.1802 21.6273 10.7663 21.877 11.38 21.9667C11.707 22.012 12.0399 22.01 12.3788 21.9667C12.9914 21.877 13.5775 21.6273 14.0769 21.2345L14.0759 21.2335C14.462 20.9646 14.7408 20.5406 14.7654 20.0602C14.7654 19.5566 14.3074 19.327 13.8838 19.2283Z" fill="#CDCDD0"/>
<path fill-rule="evenodd" clip-rule="evenodd" d="M19.5933 11.6453C18.8694 10.7923 18.5404 10.0531 18.5404 8.79716V8.37013C18.5404 6.73354 18.1671 5.67907 17.3554 4.62459C16.1045 2.98699 13.9985 2 11.9369 2H11.8492C9.83096 2 7.79101 2.94167 6.51839 4.5128C5.66242 5.58842 5.24576 6.68822 5.24576 8.37013V8.79716C5.24576 10.0531 4.93844 10.7923 4.19279 11.6453C3.64414 12.2738 3.46881 13.0815 3.46881 13.9557C3.46881 14.8309 3.75348 15.6598 4.32478 16.3336C5.07043 17.1413 6.1234 17.6569 7.19903 17.7466C8.75632 17.9258 10.3136 17.9933 11.8936 17.9933C13.4725 17.9933 15.0298 17.8805 16.5881 17.7466C17.6627 17.6569 18.7157 17.1413 19.4614 16.3336C20.0317 15.6598 20.3173 14.8309 20.3173 13.9557C20.3173 13.0815 20.142 12.2738 19.5933 11.6453Z" fill="#040415"/>
</svg>
