<svg width="16" height="16" viewBox="0 0 16 16" fill="none" xmlns="http://www.w3.org/2000/svg">
<path d="M6.66666 13.3333H9.33332V13.3333C9.33332 14.0697 8.73637 14.6666 7.99999 14.6666V14.6666C7.26361 14.6666 6.66666 14.0697 6.66666 13.3333V13.3333Z" fill="#3843FF"/>
<path d="M8.66958 2.66669H7.33039L6.64615 2.91283C5.05864 3.4839 4.00012 4.98961 4.00012 6.67671V8.89027C4.00012 9.37943 3.77012 9.84012 3.37915 10.1341C2.01423 11.1603 2.74003 13.3334 4.4477 13.3334H11.5525C13.2602 13.3334 13.986 11.1604 12.6211 10.1341C12.2301 9.84013 12.0001 9.37944 12.0001 8.89029V6.67678C12.0001 4.98964 10.9415 3.4839 9.35398 2.91287L8.66958 2.66669Z" fill="white"/>
<path d="M7.33334 1.99998C7.33334 1.63179 7.63182 1.33331 8.00001 1.33331V1.33331C8.3682 1.33331 8.66668 1.63179 8.66668 1.99998V2.66665H7.33334V1.99998Z" fill="#3843FF"/>
</svg>
