<svg width="113" height="188" viewBox="0 0 113 188" fill="none" xmlns="http://www.w3.org/2000/svg">
<g filter="url(#filter0_d_31_3254)">
<path d="M10 50C10 45.5817 13.5817 42 18 42H76C80.4183 42 84 45.5817 84 50V79C84 83.4183 80.4183 87 76 87H59.1667C57.4357 87 55.7514 87.5614 54.3667 88.6L47.7 93.6C46.9889 94.1333 46.0111 94.1333 45.3 93.6L38.6333 88.6C37.2486 87.5614 35.5643 87 33.8333 87H18C13.5817 87 10 83.4183 10 79V50Z" fill="white"/>
<path d="M10.5 50C10.5 45.8579 13.8579 42.5 18 42.5H76C80.1421 42.5 83.5 45.8579 83.5 50V79C83.5 83.1421 80.1421 86.5 76 86.5H59.1667C57.3275 86.5 55.538 87.0965 54.0667 88.2L47.4 93.2C46.8667 93.6 46.1333 93.6 45.6 93.2L38.9333 88.2C37.462 87.0965 35.6725 86.5 33.8333 86.5H18C13.8579 86.5 10.5 83.1421 10.5 79V50Z" stroke="#EAECF0"/>
</g>
<path d="M21 62.84H33V50.84H21V62.84ZM36.561 62V53.48H39.285C39.821 53.48 40.285 53.568 40.677 53.744C41.069 53.92 41.369 54.172 41.577 54.5C41.793 54.828 41.901 55.212 41.901 55.652C41.901 56.068 41.801 56.432 41.601 56.744C41.401 57.056 41.117 57.3 40.749 57.476C41.229 57.636 41.601 57.904 41.865 58.28C42.129 58.656 42.261 59.1 42.261 59.612C42.261 60.1 42.141 60.524 41.901 60.884C41.661 61.236 41.321 61.512 40.881 61.712C40.449 61.904 39.937 62 39.345 62H36.561ZM37.569 54.38V57.104H39.237C39.765 57.104 40.169 56.988 40.449 56.756C40.729 56.524 40.869 56.188 40.869 55.748C40.869 55.308 40.725 54.972 40.437 54.74C40.149 54.5 39.749 54.38 39.237 54.38H37.569ZM37.569 61.1H39.321C39.921 61.1 40.389 60.964 40.725 60.692C41.061 60.42 41.229 60.04 41.229 59.552C41.229 59.056 41.061 58.672 40.725 58.4C40.397 58.12 39.929 57.98 39.321 57.98H37.569V61.1ZM47.5838 61.832C47.1918 62.064 46.7318 62.18 46.2038 62.18C45.6758 62.18 45.2198 62.064 44.8358 61.832C44.4518 61.6 44.1558 61.272 43.9478 60.848C43.7398 60.416 43.6357 59.904 43.6357 59.312V55.808H44.5958V59.324C44.5958 59.732 44.6598 60.084 44.7878 60.38C44.9238 60.676 45.1118 60.904 45.3518 61.064C45.5998 61.224 45.8918 61.304 46.2278 61.304C46.5638 61.304 46.8518 61.224 47.0918 61.064C47.3398 60.904 47.5278 60.676 47.6558 60.38C47.7918 60.084 47.8598 59.732 47.8598 59.324V55.808H48.8198V59.312C48.8198 59.888 48.7118 60.392 48.4958 60.824C48.2798 61.256 47.9758 61.592 47.5838 61.832ZM50.4572 62V55.808H51.3212L51.3812 56.96C51.5332 56.576 51.7612 56.276 52.0652 56.06C52.3692 55.836 52.7252 55.724 53.1332 55.724C53.2692 55.724 53.3892 55.736 53.4932 55.76C53.6052 55.776 53.7012 55.8 53.7812 55.832L53.6612 56.744C53.5732 56.712 53.4812 56.692 53.3852 56.684C53.2892 56.668 53.1932 56.66 53.0972 56.66C52.7612 56.66 52.4652 56.744 52.2092 56.912C51.9612 57.08 51.7652 57.32 51.6212 57.632C51.4852 57.936 51.4172 58.296 51.4172 58.712V62H50.4572ZM54.9572 62V55.808H55.8212L55.8692 56.792C56.0532 56.44 56.3172 56.16 56.6612 55.952C57.0132 55.736 57.4172 55.628 57.8732 55.628C58.3452 55.628 58.7572 55.74 59.1092 55.964C59.4612 56.188 59.7292 56.508 59.9132 56.924C60.1052 57.332 60.2012 57.816 60.2012 58.376V62H59.2412V58.436C59.2412 57.82 59.1052 57.344 58.8332 57.008C58.5692 56.672 58.1892 56.504 57.6932 56.504C57.3492 56.504 57.0412 56.584 56.7692 56.744C56.5052 56.896 56.2972 57.112 56.1452 57.392C55.9932 57.664 55.9172 57.976 55.9172 58.328V62H54.9572ZM61.9201 59.732L61.8721 53.48H62.9041L62.8561 59.732H61.9201ZM62.7361 61.94C62.6321 62.004 62.5161 62.036 62.3881 62.036C62.2601 62.036 62.1441 62.004 62.0401 61.94C61.9361 61.876 61.8521 61.792 61.7881 61.688C61.7241 61.576 61.6921 61.46 61.6921 61.34C61.6921 61.22 61.7241 61.108 61.7881 61.004C61.8521 60.892 61.9361 60.804 62.0401 60.74C62.1441 60.676 62.2601 60.644 62.3881 60.644C62.5161 60.644 62.6321 60.676 62.7361 60.74C62.8401 60.804 62.9241 60.892 62.9881 61.004C63.0521 61.108 63.0841 61.22 63.0841 61.34C63.0841 61.46 63.0521 61.576 62.9881 61.688C62.9241 61.792 62.8401 61.876 62.7361 61.94Z" fill="#040415"/>
<path d="M24.312 78.18C23.848 78.18 23.42 78.1 23.028 77.94C22.644 77.78 22.312 77.544 22.032 77.232C21.76 76.92 21.56 76.54 21.432 76.092L22.356 75.876C22.508 76.324 22.752 76.672 23.088 76.92C23.424 77.16 23.824 77.28 24.288 77.28C24.64 77.28 24.956 77.212 25.236 77.076C25.516 76.94 25.736 76.752 25.896 76.512C26.056 76.272 26.136 76 26.136 75.696C26.136 75.376 26.056 75.1 25.896 74.868C25.744 74.636 25.524 74.456 25.236 74.328C24.956 74.2 24.624 74.136 24.24 74.136H23.34V73.236H24.204C24.564 73.236 24.872 73.176 25.128 73.056C25.392 72.936 25.596 72.768 25.74 72.552C25.884 72.328 25.956 72.072 25.956 71.784C25.956 71.52 25.884 71.288 25.74 71.088C25.604 70.88 25.416 70.72 25.176 70.608C24.936 70.496 24.656 70.44 24.336 70.44C23.896 70.44 23.516 70.56 23.196 70.8C22.884 71.032 22.66 71.36 22.524 71.784L21.612 71.568C21.716 71.152 21.896 70.796 22.152 70.5C22.416 70.196 22.74 69.96 23.124 69.792C23.508 69.624 23.928 69.54 24.384 69.54C24.752 69.54 25.092 69.596 25.404 69.708C25.724 69.812 26 69.964 26.232 70.164C26.464 70.356 26.644 70.588 26.772 70.86C26.9 71.124 26.964 71.416 26.964 71.736C26.964 72.168 26.856 72.548 26.64 72.876C26.424 73.204 26.112 73.46 25.704 73.644C26.152 73.804 26.504 74.064 26.76 74.424C27.016 74.784 27.144 75.212 27.144 75.708C27.144 76.052 27.072 76.376 26.928 76.68C26.784 76.976 26.584 77.24 26.328 77.472C26.072 77.696 25.772 77.872 25.428 78C25.084 78.12 24.712 78.18 24.312 78.18ZM28.3857 78V77.184C28.9297 76.736 29.4377 76.3 29.9097 75.876C30.3897 75.444 30.8097 75.044 31.1697 74.676C31.5457 74.292 31.8417 73.956 32.0577 73.668C32.2817 73.38 32.4417 73.116 32.5377 72.876C32.6337 72.628 32.6817 72.376 32.6817 72.12C32.6817 71.784 32.6137 71.492 32.4777 71.244C32.3417 70.988 32.1537 70.792 31.9137 70.656C31.6817 70.512 31.4057 70.44 31.0857 70.44C30.6537 70.44 30.2817 70.572 29.9697 70.836C29.6577 71.1 29.4337 71.468 29.2977 71.94L28.3857 71.712C28.4897 71.272 28.6737 70.892 28.9377 70.572C29.2017 70.244 29.5177 69.992 29.8857 69.816C30.2617 69.632 30.6697 69.54 31.1097 69.54C31.4777 69.54 31.8177 69.604 32.1297 69.732C32.4417 69.852 32.7137 70.024 32.9457 70.248C33.1777 70.472 33.3577 70.736 33.4857 71.04C33.6217 71.344 33.6897 71.672 33.6897 72.024C33.6897 72.536 33.5377 73.056 33.2337 73.584C32.9377 74.104 32.4657 74.68 31.8177 75.312C31.6657 75.456 31.4817 75.624 31.2657 75.816C31.0577 76.008 30.8297 76.212 30.5817 76.428C30.3417 76.644 30.0937 76.86 29.8377 77.076H33.8337V78H28.3857ZM37.9884 78V69.096H38.9484V72.708C39.1324 72.38 39.3964 72.12 39.7404 71.928C40.0844 71.728 40.4724 71.628 40.9044 71.628C41.3764 71.628 41.7884 71.74 42.1404 71.964C42.4924 72.188 42.7604 72.508 42.9444 72.924C43.1364 73.332 43.2324 73.816 43.2324 74.376V78H42.2724V74.436C42.2724 73.82 42.1364 73.344 41.8644 73.008C41.6004 72.672 41.2204 72.504 40.7244 72.504C40.3804 72.504 40.0724 72.584 39.8004 72.744C39.5364 72.896 39.3284 73.112 39.1764 73.392C39.0244 73.664 38.9484 73.976 38.9484 74.328V78H37.9884ZM46.7873 78.18C46.3553 78.18 45.9713 78.1 45.6353 77.94C45.2993 77.772 45.0353 77.544 44.8433 77.256C44.6593 76.968 44.5673 76.636 44.5673 76.26C44.5673 75.852 44.6713 75.5 44.8793 75.204C45.0953 74.908 45.3953 74.68 45.7793 74.52C46.1633 74.352 46.6113 74.268 47.1233 74.268C47.4113 74.268 47.7033 74.3 47.9993 74.364C48.2953 74.428 48.5593 74.512 48.7913 74.616V74.16C48.7913 73.824 48.7233 73.532 48.5873 73.284C48.4593 73.028 48.2793 72.832 48.0473 72.696C47.8153 72.552 47.5433 72.48 47.2313 72.48C46.8553 72.48 46.5273 72.568 46.2473 72.744C45.9753 72.92 45.7713 73.168 45.6353 73.488L44.7953 73.2C44.9073 72.88 45.0793 72.604 45.3113 72.372C45.5513 72.14 45.8353 71.96 46.1633 71.832C46.4993 71.704 46.8593 71.64 47.2433 71.64C47.7393 71.64 48.1713 71.748 48.5393 71.964C48.9153 72.172 49.2033 72.468 49.4033 72.852C49.6113 73.228 49.7153 73.672 49.7153 74.184V78H48.8753L48.8153 77.04C48.6393 77.384 48.3713 77.66 48.0113 77.868C47.6593 78.076 47.2513 78.18 46.7873 78.18ZM45.5393 76.224C45.5393 76.456 45.5993 76.66 45.7193 76.836C45.8393 77.004 46.0073 77.136 46.2233 77.232C46.4393 77.328 46.6873 77.376 46.9673 77.376C47.3113 77.376 47.6193 77.3 47.8913 77.148C48.1713 76.988 48.3913 76.776 48.5513 76.512C48.7113 76.24 48.7913 75.932 48.7913 75.588V75.36C48.5273 75.256 48.2593 75.176 47.9873 75.12C47.7233 75.056 47.4713 75.024 47.2313 75.024C46.7033 75.024 46.2873 75.132 45.9833 75.348C45.6873 75.564 45.5393 75.856 45.5393 76.224ZM51.3478 78V69.096H52.3078V72.9C52.5318 72.508 52.8358 72.2 53.2198 71.976C53.6118 71.744 54.0518 71.628 54.5398 71.628C54.9478 71.628 55.3278 71.712 55.6798 71.88C56.0318 72.04 56.3398 72.268 56.6038 72.564C56.8678 72.86 57.0718 73.208 57.2158 73.608C57.3678 74 57.4438 74.428 57.4438 74.892C57.4438 75.356 57.3678 75.788 57.2158 76.188C57.0718 76.588 56.8638 76.936 56.5918 77.232C56.3278 77.528 56.0158 77.76 55.6558 77.928C55.2958 78.096 54.9078 78.18 54.4918 78.18C54.0118 78.18 53.5758 78.064 53.1838 77.832C52.7918 77.6 52.4838 77.28 52.2598 76.872L52.2118 78H51.3478ZM53.5318 77.124C53.7878 77.244 54.0678 77.304 54.3718 77.304C54.6758 77.304 54.9518 77.244 55.1998 77.124C55.4558 77.004 55.6758 76.84 55.8598 76.632C56.0518 76.416 56.1998 76.164 56.3038 75.876C56.4078 75.58 56.4598 75.256 56.4598 74.904C56.4598 74.552 56.4078 74.232 56.3038 73.944C56.1998 73.648 56.0518 73.396 55.8598 73.188C55.6758 72.972 55.4558 72.804 55.1998 72.684C54.9518 72.564 54.6758 72.504 54.3718 72.504C54.0678 72.504 53.7878 72.564 53.5318 72.684C53.2838 72.804 53.0638 72.972 52.8718 73.188C52.6878 73.396 52.5438 73.648 52.4398 73.944C52.3358 74.232 52.2838 74.552 52.2838 74.904C52.2838 75.256 52.3358 75.58 52.4398 75.876C52.5438 76.164 52.6878 76.416 52.8718 76.632C53.0638 76.84 53.2838 77.004 53.5318 77.124ZM59.8567 69.672C59.9207 69.768 59.9527 69.876 59.9527 69.996C59.9527 70.116 59.9207 70.228 59.8567 70.332C59.8007 70.428 59.7207 70.508 59.6167 70.572C59.5207 70.628 59.4127 70.656 59.2927 70.656C59.1727 70.656 59.0607 70.628 58.9567 70.572C58.8607 70.508 58.7807 70.428 58.7167 70.332C58.6607 70.228 58.6327 70.116 58.6327 69.996C58.6327 69.876 58.6607 69.768 58.7167 69.672C58.7807 69.568 58.8607 69.488 58.9567 69.432C59.0607 69.368 59.1727 69.336 59.2927 69.336C59.4127 69.336 59.5207 69.368 59.6167 69.432C59.7207 69.488 59.8007 69.568 59.8567 69.672ZM58.8127 78V71.808H59.7727V78H58.8127ZM63.7654 78.18C63.3894 78.18 63.0654 78.104 62.7934 77.952C62.5214 77.8 62.3094 77.576 62.1574 77.28C62.0134 76.984 61.9414 76.624 61.9414 76.2V72.624H60.8014V71.808H61.9414V69.732H62.9014V71.808H64.8454V72.624H62.9014V76.152C62.9014 76.52 62.9774 76.808 63.1294 77.016C63.2894 77.216 63.5294 77.316 63.8494 77.316C64.0174 77.316 64.1854 77.292 64.3534 77.244C64.5294 77.188 64.6854 77.116 64.8214 77.028L65.1094 77.772C64.9414 77.892 64.7454 77.988 64.5214 78.06C64.2974 78.14 64.0454 78.18 63.7654 78.18ZM68.3038 78.18C67.9438 78.18 67.6038 78.12 67.2838 78C66.9718 77.88 66.6998 77.708 66.4678 77.484C66.2358 77.26 66.0598 76.996 65.9398 76.692L66.8038 76.38C66.9638 76.684 67.1718 76.92 67.4278 77.088C67.6838 77.256 67.9758 77.34 68.3038 77.34C68.5678 77.34 68.7998 77.296 68.9998 77.208C69.1998 77.12 69.3558 77 69.4678 76.848C69.5798 76.688 69.6358 76.512 69.6358 76.32C69.6358 75.8 69.2598 75.464 68.5078 75.312L68.0398 75.216C67.3838 75.088 66.8998 74.88 66.5878 74.592C66.2758 74.296 66.1198 73.924 66.1198 73.476C66.1198 73.116 66.2118 72.796 66.3958 72.516C66.5798 72.236 66.8358 72.02 67.1638 71.868C67.4998 71.708 67.8798 71.628 68.3038 71.628C68.6558 71.628 68.9798 71.688 69.2758 71.808C69.5718 71.92 69.8238 72.088 70.0318 72.312C70.2478 72.536 70.4118 72.8 70.5238 73.104L69.6598 73.392C69.5318 73.096 69.3478 72.868 69.1078 72.708C68.8758 72.54 68.6038 72.456 68.2918 72.456C68.0518 72.456 67.8398 72.496 67.6558 72.576C67.4798 72.656 67.3398 72.764 67.2358 72.9C67.1318 73.036 67.0798 73.196 67.0798 73.38C67.0798 73.636 67.1758 73.84 67.3678 73.992C67.5678 74.144 67.8878 74.264 68.3278 74.352L68.7958 74.448C69.3878 74.568 69.8398 74.78 70.1518 75.084C70.4638 75.38 70.6198 75.76 70.6198 76.224C70.6198 76.512 70.5598 76.776 70.4398 77.016C70.3278 77.248 70.1678 77.452 69.9598 77.628C69.7598 77.804 69.5158 77.94 69.2278 78.036C68.9478 78.132 68.6398 78.18 68.3038 78.18Z" fill="#9B9BA1"/>
<defs>
<filter id="filter0_d_31_3254" x="0" y="0" width="210" height="188" filterUnits="userSpaceOnUse" color-interpolation-filters="sRGB">
<feFlood flood-opacity="0" result="BackgroundImageFix"/>
<feColorMatrix in="SourceAlpha" type="matrix" values="0 0 0 0 0 0 0 0 0 0 0 0 0 0 0 0 0 0 127 0" result="hardAlpha"/>
<feOffset dx="58" dy="26"/>
<feGaussianBlur stdDeviation="34"/>
<feComposite in2="hardAlpha" operator="out"/>
<feColorMatrix type="matrix" values="0 0 0 0 0.135417 0 0 0 0 0.173611 0 0 0 0 0.364583 0 0 0 0.06 0"/>
<feBlend mode="normal" in2="BackgroundImageFix" result="effect1_dropShadow_31_3254"/>
<feBlend mode="normal" in="SourceGraphic" in2="effect1_dropShadow_31_3254" result="shape"/>
</filter>
</defs>
</svg>
