<svg width="48" height="48" viewBox="0 0 48 48" fill="none" xmlns="http://www.w3.org/2000/svg">
<rect x="0.5" y="0.5" width="47" height="47" rx="15.5" fill="white"/>
<rect x="0.5" y="0.5" width="47" height="47" rx="15.5" stroke="#EAECF0"/>
<path fill-rule="evenodd" clip-rule="evenodd" d="M15.0835 21.2569C15.0962 20.6699 15.1452 19.5049 15.2372 19.1299C15.7072 17.0209 17.3032 15.6809 19.5845 15.4899H28.4162C30.678 15.6909 32.2935 17.0399 32.7635 19.1299C32.8546 19.4949 32.9035 20.6689 32.9162 21.2569H15.0835Z" fill="#040415"/>
<path fill-rule="evenodd" clip-rule="evenodd" d="M20.3378 18.59C20.7686 18.59 21.0917 18.261 21.0917 17.82V14.771C21.0917 14.33 20.7686 14 20.3378 14C19.907 14 19.5839 14.33 19.5839 14.771V17.82C19.5839 18.261 19.907 18.59 20.3378 18.59ZM15.0802 28.87V21.257H32.9198V28.931C32.9198 32.07 30.9616 34 27.8284 34H20.1618C17.058 34 15.0802 32.03 15.0802 28.87ZM19.9954 26.41C19.545 26.431 19.1729 26.07 19.1533 25.611C19.1533 25.151 19.5058 24.771 19.9562 24.75C20.3968 24.75 20.7591 25.101 20.7689 25.55C20.7885 26.011 20.436 26.391 19.9954 26.41ZM24.0196 26.41C23.5692 26.431 23.1971 26.07 23.1775 25.611C23.1775 25.151 23.53 24.771 23.9804 24.75C24.421 24.75 24.7833 25.101 24.7931 25.55C24.8127 26.011 24.4602 26.391 24.0196 26.41ZM28.0144 30.09C27.564 30.08 27.2017 29.7 27.2017 29.24C27.1919 28.78 27.5542 28.401 28.0046 28.391H28.0144C28.4746 28.391 28.8467 28.771 28.8467 29.24C28.8467 29.71 28.4746 30.09 28.0144 30.09ZM23.1775 29.24C23.1971 29.7 23.5692 30.061 24.0196 30.04C24.4602 30.021 24.8127 29.641 24.7931 29.181C24.7833 28.731 24.421 28.38 23.9804 28.38C23.53 28.401 23.1775 28.78 23.1775 29.24ZM19.1436 29.24C19.1631 29.7 19.5352 30.061 19.9856 30.04C20.4262 30.021 20.7787 29.641 20.7591 29.181C20.7493 28.731 20.387 28.38 19.9464 28.38C19.496 28.401 19.1436 28.78 19.1436 29.24ZM27.2115 25.601C27.2115 25.141 27.564 24.771 28.0144 24.761C28.455 24.761 28.8075 25.12 28.8271 25.561C28.8369 26.021 28.4844 26.401 28.0438 26.41C27.5934 26.42 27.2213 26.07 27.2115 25.611V25.601ZM28.4159 17.82C28.4159 18.261 28.083 18.59 27.662 18.59C27.2312 18.59 26.9081 18.261 26.9081 17.82V14.771C26.9081 14.33 27.2312 14 27.662 14C28.083 14 28.4159 14.33 28.4159 14.771V17.82Z" fill="#CDCDD0"/>
</svg>
