<svg width="9" height="8" viewBox="0 0 9 8" fill="none" xmlns="http://www.w3.org/2000/svg">
<path fill-rule="evenodd" clip-rule="evenodd" d="M0.432861 0.292893C0.819906 -0.0976311 1.44743 -0.0976311 1.83447 0.292893L4.10693 2.58579L6.3794 0.292893C6.76644 -0.0976311 7.39396 -0.0976311 7.78101 0.292893C8.16805 0.683417 8.16805 1.31658 7.78101 1.70711L5.50855 4L7.78101 6.29289C8.16805 6.68342 8.16805 7.31658 7.78101 7.70711C7.39396 8.09763 6.76644 8.09763 6.3794 7.70711L4.10693 5.41421L1.83447 7.70711C1.44743 8.09763 0.819906 8.09763 0.432861 7.70711C0.045817 7.31658 0.045817 6.68342 0.432861 6.29289L2.70532 4L0.432861 1.70711C0.045817 1.31658 0.045817 0.683417 0.432861 0.292893Z" fill="#040415"/>
</svg>
