<svg width="24" height="24" viewBox="0 0 24 24" fill="none" xmlns="http://www.w3.org/2000/svg">
<path d="M2.97327 17.2747V9.4C2.97327 7.15979 2.97327 6.03969 3.40536 5.18404C3.78543 4.43139 4.3919 3.81947 5.13784 3.43597C5.98587 3 7.09599 3 9.31624 3H14.4699C16.6901 3 17.8003 3 18.6483 3.43597C19.3942 3.81947 20.0007 4.43139 20.3808 5.18404C20.8129 6.03969 20.8129 7.15979 20.8129 9.4V10.6C20.8129 12.8402 20.8129 13.9603 20.3808 14.816C20.0007 15.5686 19.3942 16.1805 18.6483 16.564C17.8003 17 16.6901 17 14.4699 17H10.2669C9.77009 17 9.5217 17 9.28864 17.0578C9.08202 17.109 8.88493 17.1935 8.70493 17.3079C8.50188 17.4371 8.32942 17.6174 7.98449 17.9781L7.06365 18.9411C5.78508 20.2782 5.1458 20.9468 4.5951 20.9975C4.11746 21.0415 3.64811 20.8503 3.33466 20.484C2.97327 20.0617 2.97327 19.1327 2.97327 17.2747Z" fill="#CDCDD0"/>
<path d="M7.92871 11C8.47607 11 8.9198 10.5523 8.9198 10C8.9198 9.44772 8.47607 9 7.92871 9C7.38135 9 6.93762 9.44772 6.93762 10C6.93762 10.5523 7.38135 11 7.92871 11Z" fill="#040415"/>
<path d="M12.8842 10C12.8842 10.5523 12.4404 11 11.8931 11C11.3457 11 10.902 10.5523 10.902 10C10.902 9.44772 11.3457 9 11.8931 9C12.4404 9 12.8842 9.44772 12.8842 10Z" fill="#040415"/>
<path d="M16.8485 10C16.8485 10.5523 16.4048 11 15.8574 11C15.3101 11 14.8663 10.5523 14.8663 10C14.8663 9.44772 15.3101 9 15.8574 9C16.4048 9 16.8485 9.44772 16.8485 10Z" fill="#040415"/>
</svg>
