<svg width="36" height="36" viewBox="0 0 36 36" fill="none" xmlns="http://www.w3.org/2000/svg">
<rect x="0.5" y="0.5" width="35" height="35" rx="11.5" fill="white"/>
<rect x="0.5" y="0.5" width="35" height="35" rx="11.5" stroke="#EAECF0"/>
<path fill-rule="evenodd" clip-rule="evenodd" d="M18.6534 9.71101V18.189C18.6534 18.5812 18.3379 18.8995 17.9492 18.8995C17.5605 18.8995 17.245 18.5812 17.245 18.189V9.71101C17.245 9.3188 17.5605 9.00049 17.9492 9.00049C18.3379 9.00049 18.6534 9.3188 18.6534 9.71101Z" fill="#E3524F"/>
<path fill-rule="evenodd" clip-rule="evenodd" d="M23.3488 18.189C23.3488 18.3217 23.3122 18.4524 23.2408 18.568L18.5452 26.0863C18.4157 26.2928 18.1913 26.4188 17.949 26.4188C17.7068 26.4188 17.4824 26.2928 17.3528 26.0863L12.6572 18.568C12.5211 18.3491 12.5126 18.0725 12.6375 17.8461C12.7614 17.6187 12.9971 17.4785 13.2534 17.4785H22.6446C22.9009 17.4785 23.1366 17.6187 23.2605 17.8461C23.3197 17.9531 23.3488 18.0716 23.3488 18.189Z" fill="#E3524F"/>
</svg>
