<svg width="20" height="20" viewBox="0 0 20 20" fill="none" xmlns="http://www.w3.org/2000/svg">
<path fill-rule="evenodd" clip-rule="evenodd" d="M6.08017 5.37175C6.08017 3.32925 7.79667 1.66675 9.90636 1.66675H14.0999C16.2045 1.66675 17.9167 3.32508 17.9167 5.36341V14.6267C17.9167 16.6701 16.201 18.3334 14.0913 18.3334H9.89776C7.79322 18.3334 6.08017 16.6742 6.08017 14.6351V13.8517V5.37175Z" fill="#CDCDD0"/>
<path fill-rule="evenodd" clip-rule="evenodd" d="M13.3645 9.54481L10.8913 7.12064C10.6356 6.87064 10.2243 6.87064 9.96949 7.12231C9.71557 7.37398 9.71641 7.77981 9.97119 8.02981L11.3255 9.35731H2.73509C2.37536 9.35731 2.08334 9.64481 2.08334 9.99981C2.08334 10.354 2.37536 10.6406 2.73509 10.6406H11.3255L9.97119 11.969C9.71641 12.219 9.71557 12.6248 9.96949 12.8765C10.0973 13.0023 10.264 13.0656 10.4316 13.0656C10.5975 13.0656 10.7643 13.0023 10.8913 12.8781L13.3645 10.454C13.4872 10.3331 13.5566 10.1698 13.5566 9.99981C13.5566 9.82898 13.4872 9.66564 13.3645 9.54481" fill="#040415"/>
</svg>
