<svg width="20" height="20" viewBox="0 0 20 20" fill="none" xmlns="http://www.w3.org/2000/svg">
<path fill-rule="evenodd" clip-rule="evenodd" d="M14.0702 4.26233H11.6177C11.0067 4.26637 10.4266 3.99459 10.0394 3.52288L9.23179 2.40631C8.8511 1.93047 8.27104 1.65741 7.66097 1.66686H5.92713C2.81512 1.66686 1.66663 3.4933 1.66663 6.59899V9.95609C1.66276 10.3253 18.3297 10.3248 18.3307 9.95609V8.98002C18.3456 5.87433 17.2267 4.26233 14.0702 4.26233Z" fill="#AFB4FF"/>
<path fill-rule="evenodd" clip-rule="evenodd" d="M17.3601 5.45286C17.6267 5.7646 17.8327 6.12319 17.9677 6.51028C18.2331 7.30585 18.3561 8.14189 18.3307 8.98004V13.3576C18.3297 13.7263 18.3024 14.0945 18.2492 14.4594C18.1479 15.1033 17.9214 15.7212 17.5824 16.2784C17.4265 16.5475 17.2373 16.796 17.0192 17.0178C16.0319 17.924 14.7208 18.3957 13.3811 18.3267H6.6088C5.26704 18.3952 3.95381 17.9237 2.9633 17.0178C2.7478 16.7955 2.5611 16.5471 2.40758 16.2784C2.07058 15.7216 1.84887 15.1031 1.75554 14.4594C1.6962 14.0951 1.66647 13.7266 1.66663 13.3576V8.98004C1.66648 8.61444 1.68627 8.2491 1.7259 7.88565C1.73424 7.82189 1.74674 7.75916 1.75911 7.69708C1.77974 7.59359 1.8 7.49191 1.8 7.39022C1.87522 6.95162 2.01243 6.52589 2.20753 6.12576C2.78547 4.89088 3.971 4.26235 5.9123 4.26235H14.0628C15.1501 4.17826 16.2294 4.50559 17.0859 5.17927C17.1846 5.26292 17.2763 5.35442 17.3601 5.45286ZM5.80857 12.9509H14.1962H14.211C14.3951 12.9589 14.5746 12.893 14.7097 12.768C14.8447 12.6429 14.924 12.4691 14.9297 12.2854C14.9401 12.1239 14.887 11.9647 14.7815 11.8417C14.6603 11.6764 14.4681 11.5778 14.2629 11.5755H5.80857C5.428 11.5755 5.11948 11.8834 5.11948 12.2632C5.11948 12.643 5.428 12.9509 5.80857 12.9509Z" fill="white"/>
</svg>
