<svg width="36" height="36" viewBox="0 0 36 36" fill="none" xmlns="http://www.w3.org/2000/svg">
<rect x="0.5" y="0.5" width="35" height="35" rx="11.5" fill="white"/>
<rect x="0.5" y="0.5" width="35" height="35" rx="11.5" stroke="#EAECF0"/>
<path fill-rule="evenodd" clip-rule="evenodd" d="M26.4177 10.8984C27.2414 10.8984 27.9109 11.5621 27.9109 12.3787C27.9109 13.1963 27.2414 13.86 26.4177 13.86H19.9007C19.0759 13.86 18.4064 13.1963 18.4064 12.3787C18.4064 11.5621 19.0759 10.8984 19.9007 10.8984H26.4177ZM9.58344 21.9581H16.1004C16.9252 21.9581 17.5947 22.6218 17.5947 23.4394C17.5947 24.2559 16.9252 24.9207 16.1004 24.9207H9.58344C8.75864 24.9207 8.08911 24.2559 8.08911 23.4394C8.08911 22.6218 8.75864 21.9581 9.58344 21.9581Z" fill="#CDCDD0"/>
<path fill-rule="evenodd" clip-rule="evenodd" d="M11.4973 15.7582C13.3804 15.7582 14.9056 14.2452 14.9056 12.3786C14.9056 10.513 13.3804 9 11.4973 9C9.61538 9 8.08911 10.513 8.08911 12.3786C8.08911 14.2452 9.61538 15.7582 11.4973 15.7582ZM24.5027 26.7778C26.3857 26.7778 27.9109 25.2648 27.9109 23.3992C27.9109 21.5325 26.3857 20.0196 24.5027 20.0196C22.6207 20.0196 21.0944 21.5325 21.0944 23.3992C21.0944 25.2648 22.6207 26.7778 24.5027 26.7778Z" fill="#040415"/>
</svg>
