<svg width="21" height="20" viewBox="0 0 21 20" fill="none" xmlns="http://www.w3.org/2000/svg">
<path d="M19.2263 10.2C19.2263 9.46 19.165 8.92 19.0324 8.36001H10.41V11.7H15.4712C15.3692 12.53 14.8182 13.78 13.5936 14.62L13.5765 14.7318L16.3027 16.8015L16.4916 16.82C18.2263 15.25 19.2263 12.94 19.2263 10.2Z" fill="#3843FF"/>
<path d="M10.41 19C12.8895 19 14.9712 18.2 16.4916 16.82L13.5936 14.62C12.8181 15.15 11.7773 15.52 10.41 15.52C7.98144 15.52 5.92023 13.95 5.18546 11.78L5.07776 11.789L2.24296 13.939L2.20589 14.04C3.71607 16.9799 6.81812 19 10.41 19Z" fill="#3BA935"/>
<path d="M5.18546 11.78C4.99159 11.22 4.87939 10.62 4.87939 10C4.87939 9.37996 4.99159 8.77998 5.17526 8.21999L5.17013 8.10073L2.2998 5.91619L2.20589 5.95996C1.58347 7.17998 1.22632 8.55 1.22632 10C1.22632 11.45 1.58347 12.82 2.20589 14.04L5.18546 11.78Z" fill="#FEA800"/>
<path d="M10.41 4.47998C12.1345 4.47998 13.2977 5.20997 13.961 5.82001L16.5528 3.34C14.961 1.89 12.8895 1 10.41 1C6.81812 1 3.71607 3.01998 2.20589 5.95996L5.17526 8.21999C5.92023 6.05 7.98144 4.47998 10.41 4.47998Z" fill="#E3524F"/>
</svg>
