<svg width="24" height="24" viewBox="0 0 24 24" fill="none" xmlns="http://www.w3.org/2000/svg">
<path fill-rule="evenodd" clip-rule="evenodd" d="M16.1944 2H7.60165C4.24186 2 1.98218 4.38 1.98218 7.92V16.09C1.98218 19.62 4.24186 22 7.60165 22H16.1944C19.5542 22 21.804 19.62 21.804 16.09V7.92C21.804 4.38 19.5542 2 16.1944 2Z" fill="#CDCDD0"/>
<path fill-rule="evenodd" clip-rule="evenodd" d="M11.0256 8.18945C11.0256 8.67145 11.4131 9.06445 11.8879 9.06445C12.3765 9.06445 12.765 8.67145 12.765 8.18945C12.765 7.70745 12.3765 7.31445 11.8978 7.31445C11.4171 7.31445 11.0256 7.70745 11.0256 8.18945ZM12.755 11.3623C12.755 10.8803 12.3655 10.4873 11.8878 10.4873C11.4101 10.4873 11.0206 10.8803 11.0206 11.3623V15.7823C11.0206 16.2643 11.4101 16.6573 11.8878 16.6573C12.3655 16.6573 12.755 16.2643 12.755 15.7823V11.3623Z" fill="#040415"/>
</svg>
