<svg width="16" height="16" viewBox="0 0 16 16" fill="none" xmlns="http://www.w3.org/2000/svg">
<path fill-rule="evenodd" clip-rule="evenodd" d="M12.0877 6.01127C12.2569 6.0127 12.4074 6.01398 12.5392 6.01398C12.6875 6.01398 12.9043 6.01225 13.1193 6.01054C13.2029 6.00987 13.2861 6.00921 13.365 6.00865C13.5327 6.00798 13.6667 6.14465 13.6667 6.31398V11.668C13.6667 13.3246 12.3372 14.6666 10.6975 14.6666H5.4464C3.72682 14.6666 2.33334 13.2593 2.33334 11.5226V4.33931C2.33334 2.68398 3.66345 1.33331 5.30909 1.33331H8.83537C9.00238 1.33331 9.13704 1.47065 9.13704 1.63931V3.78331C9.13704 5.00531 10.1325 6.00731 11.3431 6.00731C11.6222 6.00731 11.8704 6.00942 12.0877 6.01127ZM10.1753 1.93418C10.1753 1.64685 10.5233 1.50418 10.7227 1.71151C11.1844 2.19115 11.8665 2.90078 12.4822 3.54125C12.8284 3.90137 13.1535 4.23963 13.4067 4.50285C13.6013 4.70551 13.4587 5.04085 13.178 5.04151C12.63 5.04285 11.9847 5.04151 11.52 5.03618C10.7827 5.03618 10.1753 4.42951 10.1753 3.69218V1.93418Z" fill="white"/>
<path fill-rule="evenodd" clip-rule="evenodd" d="M5.9826 7.59173H8.23927C8.51327 7.59173 8.73594 7.36973 8.73594 7.09573C8.73594 6.82173 8.51327 6.59906 8.23927 6.59906H5.9826C5.7086 6.59906 5.4866 6.82173 5.4866 7.09573C5.4866 7.36973 5.7086 7.59173 5.9826 7.59173ZM5.98267 10.9212H9.612C9.886 10.9212 10.1087 10.6992 10.1087 10.4252C10.1087 10.1512 9.886 9.92853 9.612 9.92853H5.98267C5.70867 9.92853 5.48667 10.1512 5.48667 10.4252C5.48667 10.6992 5.70867 10.9212 5.98267 10.9212Z" fill="#3843FF"/>
</svg>
