<svg width="24" height="24" viewBox="0 0 24 24" fill="none" xmlns="http://www.w3.org/2000/svg">
<path fill-rule="evenodd" clip-rule="evenodd" d="M16.1889 1.99976H7.59713C4.23832 1.99976 1.9826 4.37776 1.9826 7.91676V16.0838C1.9826 19.6218 4.23832 21.9998 7.59713 21.9998H16.1879C19.5467 21.9998 21.8044 19.6218 21.8044 16.0838V7.91676C21.8044 4.37776 19.5477 1.99976 16.1889 1.99976Z" fill="#CDCDD0"/>
<path fill-rule="evenodd" clip-rule="evenodd" d="M11.2134 11.2484H16.8626C17.2689 11.2484 17.6059 11.5884 17.6059 11.9984V13.8484C17.6059 14.2684 17.2689 14.5984 16.8626 14.5984C16.4463 14.5984 16.1193 14.2684 16.1193 13.8484V12.7484H14.8011V13.8484C14.8011 14.2684 14.4642 14.5984 14.0578 14.5984C13.6416 14.5984 13.3145 14.2684 13.3145 13.8484V12.7484H11.2134C10.8962 13.8184 9.92497 14.5984 8.76539 14.5984C7.33822 14.5984 6.17865 13.4384 6.17865 11.9984C6.17865 10.5684 7.33822 9.39844 8.76539 9.39844C9.92497 9.39844 10.8962 10.1784 11.2134 11.2484ZM7.66528 11.9984C7.66528 12.6084 8.16083 13.0984 8.76539 13.0984C9.36005 13.0984 9.85559 12.6084 9.85559 11.9984C9.85559 11.3884 9.36005 10.8984 8.76539 10.8984C8.16083 10.8984 7.66528 11.3884 7.66528 11.9984Z" fill="#040415"/>
</svg>
