<svg width="24" height="24" viewBox="0 0 24 24" fill="none" xmlns="http://www.w3.org/2000/svg">
<path d="M15.8574 16.9297C18.2273 15.5465 19.8218 12.9611 19.8218 10C19.8218 5.58172 16.272 2 11.8931 2C7.51416 2 3.96436 5.58172 3.96436 10C3.96436 12.9611 5.55881 15.5465 7.92871 16.9297V18C7.92871 18.5523 8.37244 19 8.9198 19H14.8663C15.4137 19 15.8574 18.5523 15.8574 18V16.9297Z" fill="#CDCDD0"/>
<path d="M8.9198 19H14.8663V20C14.8663 21.1046 13.9789 22 12.8842 22H10.902C9.80725 22 8.9198 21.1046 8.9198 20V19Z" fill="#040415"/>
<path d="M10.6117 10.2929C10.2247 9.90237 9.59713 9.90237 9.21008 10.2929C8.82304 10.6834 8.82304 11.3166 9.21008 11.7071L10.902 13.4142V19H12.8842V13.4142L14.5761 11.7071C14.9631 11.3166 14.9631 10.6834 14.5761 10.2929C14.189 9.90237 13.5615 9.90237 13.1744 10.2929L11.8931 11.5858L10.6117 10.2929Z" fill="#040415"/>
</svg>
