<svg width="16" height="16" viewBox="0 0 16 16" fill="none" xmlns="http://www.w3.org/2000/svg">
<path fill-rule="evenodd" clip-rule="evenodd" d="M4.84057 6.5654C5.67175 5.8004 6.78133 5.33325 8.00001 5.33325C9.2187 5.33325 10.3283 5.8004 11.1595 6.5654L13.2067 2.81211C13.5702 2.14573 13.0879 1.33325 12.3288 1.33325H10.1179C9.6337 1.33325 9.18754 1.59577 8.95238 2.01906L7.99999 3.73336L7.04761 2.01906C6.81245 1.59577 6.36629 1.33325 5.88206 1.33325H3.67121C2.91215 1.33325 2.42984 2.14573 2.79332 2.81211L4.84057 6.5654Z" fill="#FFCD6D"/>
<path d="M12.6667 9.99992C12.6667 12.5772 10.5774 14.6666 8.00004 14.6666C5.42271 14.6666 3.33337 12.5772 3.33337 9.99992C3.33337 7.42259 5.42271 5.33325 8.00004 5.33325C10.5774 5.33325 12.6667 7.42259 12.6667 9.99992Z" fill="#FEA800"/>
<path fill-rule="evenodd" clip-rule="evenodd" d="M7.99996 11.3334C8.73634 11.3334 9.33329 10.7365 9.33329 10.0001C9.33329 9.2637 8.73634 8.66675 7.99996 8.66675C7.26358 8.66675 6.66663 9.2637 6.66663 10.0001C6.66663 10.7365 7.26358 11.3334 7.99996 11.3334Z" fill="#FFCD6D"/>
</svg>
