<svg width="25" height="24" viewBox="0 0 25 24" fill="none" xmlns="http://www.w3.org/2000/svg">
<path fill-rule="evenodd" clip-rule="evenodd" d="M7.7608 9.84822C9.00756 8.70072 10.6719 8 12.5 8C14.328 8 15.9924 8.70072 17.2391 9.84822L20.31 4.21828C20.8552 3.21872 20.1318 2 18.9932 2H15.6768C14.9505 2 14.2812 2.39378 13.9285 3.02871L12.4999 5.60016L11.0714 3.02871C10.7186 2.39378 10.0494 2 9.32304 2H6.00676C4.86817 2 4.1447 3.21872 4.68992 4.21828L7.7608 9.84822Z" fill="#EAECF0"/>
<path d="M19.5 15C19.5 18.866 16.366 22 12.5 22C8.63401 22 5.5 18.866 5.5 15C5.5 11.134 8.63401 8 12.5 8C16.366 8 19.5 11.134 19.5 15Z" fill="#9B9BA1"/>
<path fill-rule="evenodd" clip-rule="evenodd" d="M12.5 17C13.6046 17 14.5 16.1046 14.5 15C14.5 13.8954 13.6046 13 12.5 13C11.3954 13 10.5 13.8954 10.5 15C10.5 16.1046 11.3954 17 12.5 17Z" fill="#EAECF0"/>
</svg>
