<svg width="36" height="36" viewBox="0 0 36 36" fill="none" xmlns="http://www.w3.org/2000/svg">
<rect x="0.5" y="0.5" width="35" height="35" rx="11.5" fill="white"/>
<rect x="0.5" y="0.5" width="35" height="35" rx="11.5" stroke="#EAECF0"/>
<path fill-rule="evenodd" clip-rule="evenodd" d="M13.3031 15.8482C14.5387 14.7007 16.1883 14 18 14C19.8117 14 21.4613 14.7007 22.6969 15.8482L25.7405 10.2183C26.2808 9.21872 25.5638 8 24.4353 8H21.1486C20.4287 8 19.7654 8.39378 19.4158 9.02871L18 11.6002L16.5841 9.02871C16.2345 8.39378 15.5713 8 14.8514 8H11.5647C10.4362 8 9.71919 9.21872 10.2596 10.2183L13.3031 15.8482Z" fill="#FEA800"/>
<path d="M24.9376 21C24.9376 24.866 21.8315 28 18 28C14.1685 28 11.0624 24.866 11.0624 21C11.0624 17.134 14.1685 14 18 14C21.8315 14 24.9376 17.134 24.9376 21Z" fill="#FFE6B6"/>
<path fill-rule="evenodd" clip-rule="evenodd" d="M18 23C19.0947 23 19.9822 22.1046 19.9822 21C19.9822 19.8954 19.0947 19 18 19C16.9053 19 16.0178 19.8954 16.0178 21C16.0178 22.1046 16.9053 23 18 23Z" fill="#FEA800"/>
</svg>
