<svg width="24" height="24" viewBox="0 0 24 24" fill="none" xmlns="http://www.w3.org/2000/svg">
<path fill-rule="evenodd" clip-rule="evenodd" d="M21.804 12.0048C21.804 17.5137 17.3555 22 11.8931 22C6.4306 22 1.98218 17.5137 1.98218 12.0048C1.98218 6.48625 6.4306 2 11.8931 2C17.3555 2 21.804 6.48625 21.804 12.0048Z" fill="#CDCDD0"/>
<path fill-rule="evenodd" clip-rule="evenodd" d="M15.8574 12.0049C15.8574 12.2576 15.7786 12.5113 15.6209 12.7145C15.5914 12.7543 15.4534 12.9186 15.345 13.0255L15.2859 13.0838C14.4581 13.9694 12.3985 15.3011 11.3539 15.7278C11.3539 15.7375 10.733 15.9913 10.4374 16H10.398C9.94468 16 9.52093 15.7482 9.30413 15.34C9.18587 15.1154 9.07747 14.4642 9.06762 14.4554C8.97893 13.8712 8.9198 12.9769 8.9198 11.9951C8.9198 10.9657 8.97893 10.0316 9.08733 9.45808C9.08733 9.44836 9.19573 8.92345 9.26471 8.74848C9.37311 8.49672 9.5702 8.2819 9.81657 8.14581C10.0137 8.04957 10.2206 8 10.4374 8C10.6641 8.01069 11.0878 8.15553 11.2553 8.22357C12.359 8.65128 14.4679 10.051 15.276 10.9064C15.414 11.0425 15.5618 11.2087 15.6012 11.2467C15.7687 11.4605 15.8574 11.723 15.8574 12.0049Z" fill="#040415"/>
</svg>
