<svg width="48" height="48" viewBox="0 0 48 48" fill="none" xmlns="http://www.w3.org/2000/svg">
<rect x="0.5" y="0.5" width="47" height="47" rx="15.5" fill="white"/>
<rect x="0.5" y="0.5" width="47" height="47" rx="15.5" stroke="#EAECF0"/>
<path fill-rule="evenodd" clip-rule="evenodd" d="M25.9908 31.2284C25.4953 31.1216 22.4763 31.1216 21.9808 31.2284C21.5573 31.3271 21.0992 31.5567 21.0992 32.0603C21.1239 32.5407 21.4026 32.9647 21.7887 33.2336L21.7878 33.2346C22.2872 33.6274 22.8732 33.8771 23.4869 33.9668C23.8139 34.0121 24.1468 34.0101 24.4857 33.9668C25.0984 33.8771 25.6844 33.6274 26.1838 33.2346L26.1829 33.2336C26.569 32.9647 26.8477 32.5407 26.8724 32.0603C26.8724 31.5567 26.4143 31.3271 25.9908 31.2284Z" fill="#040415"/>
<path fill-rule="evenodd" clip-rule="evenodd" d="M31.7003 23.6453C30.9764 22.7923 30.6474 22.0531 30.6474 20.7972V20.3701C30.6474 18.7335 30.2741 17.6791 29.4624 16.6246C28.2115 14.987 26.1055 14 24.0439 14H23.9562C21.938 14 19.898 14.9417 18.6254 16.5128C17.7694 17.5884 17.3528 18.6882 17.3528 20.3701V20.7972C17.3528 22.0531 17.0454 22.7923 16.2998 23.6453C15.7511 24.2738 15.5758 25.0815 15.5758 25.9557C15.5758 26.8309 15.8605 27.6598 16.4318 28.3336C17.1774 29.1413 18.2304 29.6569 19.306 29.7466C20.8633 29.9258 22.4206 29.9933 24.0006 29.9933C25.5795 29.9933 27.1368 29.8805 28.6951 29.7466C29.7697 29.6569 30.8227 29.1413 31.5683 28.3336C32.1387 27.6598 32.4243 26.8309 32.4243 25.9557C32.4243 25.0815 32.249 24.2738 31.7003 23.6453Z" fill="#CDCDD0"/>
<ellipse cx="35.9644" cy="12" rx="3.96436" ry="4" fill="#E3524F"/>
</svg>
