<svg width="48" height="48" viewBox="0 0 48 48" fill="none" xmlns="http://www.w3.org/2000/svg">
<rect x="0.5" y="0.5" width="47" height="47" rx="15.5" fill="white"/>
<rect x="0.5" y="0.5" width="47" height="47" rx="15.5" stroke="#EAECF0"/>
<path fill-rule="evenodd" clip-rule="evenodd" d="M33.1478 26.37C32.9554 26.07 32.6819 25.77 32.3274 25.58C32.0438 25.44 31.8615 25.21 31.6994 24.94C31.1829 24.08 31.4867 22.95 32.3477 22.44C33.3605 21.87 33.6846 20.6 33.0972 19.61L32.4186 18.43C31.8412 17.44 30.5752 17.09 29.5725 17.67C28.6812 18.15 27.5366 17.83 27.0201 16.98C26.858 16.7 26.7669 16.4 26.7871 16.1C26.8175 15.71 26.696 15.34 26.5136 15.04C26.1389 14.42 25.4603 14 24.7108 14H23.2827C22.5433 14.02 21.8647 14.42 21.4899 15.04C21.2975 15.34 21.1861 15.71 21.2063 16.1C21.2266 16.4 21.1354 16.7 20.9734 16.98C20.4568 17.83 19.3123 18.15 18.4311 17.67C17.4182 17.09 16.1623 17.44 15.5749 18.43L14.8963 19.61C14.3189 20.6 14.643 21.87 15.6458 22.44C16.5067 22.95 16.8105 24.08 16.3041 24.94C16.1319 25.21 15.9496 25.44 15.666 25.58C15.3216 25.77 15.0178 26.07 14.8557 26.37C14.481 26.99 14.5012 27.77 14.876 28.42L15.5749 29.62C15.9496 30.26 16.6485 30.66 17.3777 30.66C17.7221 30.66 18.1272 30.56 18.4514 30.36C18.7046 30.19 19.0084 30.13 19.3427 30.13C20.3454 30.13 21.1861 30.96 21.2063 31.95C21.2063 33.1 22.1381 34 23.313 34H24.6905C25.8553 34 26.7871 33.1 26.7871 31.95C26.8175 30.96 27.6582 30.13 28.6609 30.13C28.985 30.13 29.2889 30.19 29.5522 30.36C29.8763 30.56 30.2713 30.66 30.6258 30.66C31.3449 30.66 32.0438 30.26 32.4186 29.62L33.1276 28.42C33.4922 27.75 33.5226 26.99 33.1478 26.37Z" fill="#CDCDD0"/>
<path fill-rule="evenodd" clip-rule="evenodd" d="M24.0119 26.8302C22.4217 26.8302 21.1354 25.5802 21.1354 24.0102C21.1354 22.4402 22.4217 21.1802 24.0119 21.1802C25.602 21.1802 26.858 22.4402 26.858 24.0102C26.858 25.5802 25.602 26.8302 24.0119 26.8302Z" fill="#040415"/>
</svg>
