<svg width="24" height="24" viewBox="0 0 24 24" fill="none" xmlns="http://www.w3.org/2000/svg">
<path fill-rule="evenodd" clip-rule="evenodd" d="M19.1182 3.22107C19.5318 2.92475 20.1003 3.03319 20.384 3.45726C21.9387 5.76657 22.795 8.80164 22.795 11.9999C22.795 15.2003 21.9387 18.2343 20.384 20.5436C20.2146 20.7959 19.935 20.9473 19.6368 20.9473C19.4518 20.9473 19.273 20.8893 19.1192 20.7798C18.7077 20.4824 18.6058 19.8973 18.8906 19.4722C20.2354 17.4731 20.9764 14.8192 20.9764 11.9999C20.9764 9.18169 20.2354 6.52776 18.8906 4.52871C18.6058 4.10464 18.7077 3.51845 19.1182 3.22107ZM15.9846 6.25839C16.3993 5.96315 16.9657 6.06944 17.2515 6.49458C18.2554 7.98689 18.8093 9.94191 18.8093 12C18.8093 14.0581 18.2554 16.0131 17.2515 17.5054C17.081 17.7577 16.8025 17.9091 16.5042 17.9091C16.3193 17.9091 16.1395 17.8511 15.9856 17.7416C15.5741 17.4442 15.4723 16.858 15.7581 16.434C16.5531 15.2519 16.9906 13.677 16.9906 12C16.9906 10.322 16.5531 8.74807 15.7581 7.56603C15.4723 7.14196 15.5741 6.55578 15.9846 6.25839Z" fill="#CDCDD0"/>
<path fill-rule="evenodd" clip-rule="evenodd" d="M13.2381 6.45056C13.1882 5.96422 13.1362 5.45963 13.0084 4.95611C12.6602 3.75153 11.6958 3.00001 10.6618 3.00001C10.085 2.99786 9.35542 3.35644 8.9418 3.71932L5.5133 6.61697H3.71851C2.39762 6.61697 1.3355 7.6444 1.13493 9.12705C0.964489 10.5506 0.922919 13.2379 1.13493 14.8042C1.31887 16.3706 2.33319 17.383 3.71851 17.383H5.5133L9.00831 20.3236C9.36685 20.6382 9.99976 20.9989 10.5817 20.9989C10.6192 21 10.6524 21 10.6857 21C11.7395 21 12.6675 20.2206 13.0157 19.0192C13.1477 18.5082 13.1934 18.0293 13.2381 17.5666L13.2848 17.1082C13.4636 15.6213 13.4636 8.36908 13.2848 6.89288L13.2381 6.45056Z" fill="#040415"/>
</svg>
