<svg width="36" height="36" viewBox="0 0 36 36" fill="none" xmlns="http://www.w3.org/2000/svg">
<rect x="0.5" y="0.5" width="35" height="35" rx="11.5" fill="white"/>
<rect x="0.5" y="0.5" width="35" height="35" rx="11.5" stroke="#EAECF0"/>
<path fill-rule="evenodd" clip-rule="evenodd" d="M17.3466 26.289V17.811C17.3466 17.4188 17.6621 17.1005 18.0508 17.1005C18.4395 17.1005 18.755 17.4188 18.755 17.811V26.289C18.755 26.6812 18.4395 26.9995 18.0508 26.9995C17.6621 26.9995 17.3466 26.6812 17.3466 26.289Z" fill="#3BA935"/>
<path fill-rule="evenodd" clip-rule="evenodd" d="M12.6512 17.811C12.6512 17.6783 12.6878 17.5476 12.7592 17.432L17.4548 9.9137C17.5843 9.70717 17.8087 9.58117 18.051 9.58117C18.2932 9.58117 18.5176 9.70717 18.6472 9.9137L23.3428 17.432C23.4789 17.6509 23.4874 17.9275 23.3625 18.1539C23.2386 18.3813 23.0029 18.5215 22.7466 18.5215H13.3554C13.0991 18.5215 12.8634 18.3813 12.7395 18.1539C12.6803 18.0469 12.6512 17.9284 12.6512 17.811Z" fill="#3BA935"/>
</svg>
