<svg width="48" height="48" viewBox="0 0 48 48" fill="none" xmlns="http://www.w3.org/2000/svg">
<rect x="0.5" y="0.5" width="47" height="47" rx="15.5" fill="white"/>
<rect x="0.5" y="0.5" width="47" height="47" rx="15.5" stroke="#EAECF0"/>
<path fill-rule="evenodd" clip-rule="evenodd" d="M23.9495 24.467C26.2648 24.467 28.1213 22.5831 28.1213 20.2335C28.1213 17.8831 26.2648 16 23.9495 16C21.6342 16 19.7777 17.8831 19.7777 20.2335C19.7777 22.5831 21.6342 24.467 23.9495 24.467ZM33.007 21.2193C33.606 18.8418 31.8498 16.7066 29.6135 16.7066C29.3703 16.7066 29.1378 16.7336 28.9106 16.7795C28.8805 16.7867 28.8467 16.802 28.829 16.8291C28.8086 16.8633 28.8237 16.9092 28.8458 16.9389C29.5176 17.8953 29.9037 19.0597 29.9037 20.3097C29.9037 21.5074 29.5496 22.6241 28.9284 23.5508C28.8645 23.6463 28.9213 23.775 29.034 23.7949C29.1902 23.8228 29.3499 23.8372 29.5132 23.8417C31.1416 23.8849 32.6032 22.8214 33.007 21.2193ZM18.3861 16.7068C18.6293 16.7068 18.8627 16.733 19.089 16.7798C19.12 16.787 19.1529 16.8014 19.1706 16.8293C19.1919 16.8635 19.1759 16.9095 19.1546 16.9392C18.4829 17.8947 18.0959 19.0591 18.0959 20.31C18.0959 21.5077 18.45 22.6235 19.0712 23.5511C19.1351 23.6465 19.0783 23.7753 18.9656 23.7951C18.8103 23.8221 18.6497 23.8374 18.4864 23.842C16.858 23.8852 15.3964 22.8216 14.9935 21.2195C14.3936 18.8421 16.1498 16.7068 18.3861 16.7068Z" fill="#CDCDD0"/>
<path fill-rule="evenodd" clip-rule="evenodd" d="M34.713 26.817C34.4148 26.1722 33.6951 25.73 32.6009 25.513C32.0844 25.3851 30.6867 25.205 29.3866 25.2293C29.3671 25.232 29.3565 25.2455 29.3547 25.2545C29.352 25.2671 29.3574 25.2887 29.3831 25.3022C29.9839 25.6039 32.3063 26.916 32.0143 29.6834C32.0019 29.8032 32.0968 29.9068 32.2149 29.8888C32.7864 29.8059 34.2568 29.4853 34.713 28.4866C34.965 27.9589 34.965 27.3456 34.713 26.817ZM23.9495 26.5399C20.5302 26.5399 17.6452 27.1037 17.6452 29.2794C17.6452 31.4561 20.5489 32 23.9495 32C27.3687 32 30.2537 31.4363 30.2537 29.2605C30.2537 27.0839 27.3501 26.5399 23.9495 26.5399ZM13.2877 26.8167C13.5859 26.1719 14.3047 25.7297 15.3989 25.5127C15.9163 25.3848 17.3131 25.2047 18.614 25.2299C18.6336 25.2317 18.6433 25.2452 18.6451 25.2542C18.6477 25.2677 18.6424 25.2884 18.6176 25.3029C18.0159 25.6045 15.6935 26.9166 15.9855 29.6832C15.9979 29.8038 15.9038 29.9065 15.7858 29.8885C15.2143 29.8065 13.7438 29.485 13.2877 28.4872C13.0348 27.9586 13.0348 27.3453 13.2877 26.8167Z" fill="#040415"/>
</svg>
